<mxfile host="app.diagrams.net" agent="Mozilla/5.0 (Windows NT 10.0; Win64; x64) AppleWebKit/537.36 (KHTML, like Gecko) Chrome/131.0.0.0 Safari/537.36" version="25.0.1">
  <diagram id="C5RBs43oDa-KdzZeNtuy" name="Page-1">
    <mxGraphModel dx="880" dy="529" grid="1" gridSize="10" guides="1" tooltips="1" connect="1" arrows="1" fold="1" page="1" pageScale="1" pageWidth="827" pageHeight="1169" background="none" math="0" shadow="0">
      <root>
        <mxCell id="WIyWlLk6GJQsqaUBKTNV-0" />
        <mxCell id="WIyWlLk6GJQsqaUBKTNV-1" parent="WIyWlLk6GJQsqaUBKTNV-0" />
        <object placeholders="1" c4Name="InstaPay APP" c4Type="SystemScopeBoundary" c4Application="Software System" label="%c4Name%&lt;br&gt;[%c4Application%]" id="wq40zb9lQaKxEZ9UK5ey-11">
          <mxCell style="rounded=0;fontSize=17;dashed=1;arcSize=20;fillColor=#DBDBDB;strokeColor=default;labelBackgroundColor=none;align=center;verticalAlign=top;labelBorderColor=none;spacingTop=0;spacing=9;dashPattern=8 4;metaEdit=1;rotatable=0;perimeter=rectanglePerimeter;noLabel=0;labelPadding=0;allowArrows=0;connectable=0;expand=0;recursiveResize=0;editable=1;pointerEvents=0;absoluteArcSize=1;points=[[0.25,0,0],[0.5,0,0],[0.75,0,0],[1,0.25,0],[1,0.5,0],[1,0.75,0],[0.75,1,0],[0.5,1,0],[0.25,1,0],[0,0.75,0],[0,0.5,0],[0,0.25,0]];fillStyle=auto;gradientColor=default;gradientDirection=north;strokeWidth=1;perimeterSpacing=0;opacity=80;glass=0;shadow=0;fontStyle=1;fontFamily=Helvetica;labelPosition=center;verticalLabelPosition=middle;textDirection=ltr;textShadow=1;whiteSpace=wrap;html=1;spacingLeft=0;spacingBottom=0;spacingRight=0;direction=east;flipH=0;flipV=1;container=0;" parent="WIyWlLk6GJQsqaUBKTNV-1" vertex="1">
            <mxGeometry x="160" y="50" width="595" height="980" as="geometry" />
          </mxCell>
        </object>
        <object label="Login" id="wq40zb9lQaKxEZ9UK5ey-12">
          <mxCell style="ellipse;whiteSpace=wrap;html=1;fillColor=#fff2cc;strokeColor=#d6b656;fontStyle=0;fontSize=17;" parent="WIyWlLk6GJQsqaUBKTNV-1" vertex="1">
            <mxGeometry x="230" y="260" width="120" height="80" as="geometry" />
          </mxCell>
        </object>
        <mxCell id="wq40zb9lQaKxEZ9UK5ey-13" value="Verify Password" style="ellipse;whiteSpace=wrap;html=1;fontSize=14;fillColor=#fff2cc;strokeColor=#d6b656;" parent="WIyWlLk6GJQsqaUBKTNV-1" vertex="1">
          <mxGeometry x="465" y="220" width="110" height="80" as="geometry" />
        </mxCell>
        <mxCell id="wq40zb9lQaKxEZ9UK5ey-14" value="Display Error&lt;div style=&quot;font-size: 14px;&quot;&gt;log in&lt;/div&gt;" style="ellipse;whiteSpace=wrap;html=1;fillColor=#fff2cc;strokeColor=#d6b656;fontSize=14;" parent="WIyWlLk6GJQsqaUBKTNV-1" vertex="1">
          <mxGeometry x="465" y="320" width="115" height="80" as="geometry" />
        </mxCell>
        <mxCell id="wq40zb9lQaKxEZ9UK5ey-15" value="&amp;lt;&amp;lt;include&amp;gt;&amp;gt;" style="html=1;verticalAlign=bottom;labelBackgroundColor=none;endArrow=open;endFill=0;dashed=1;rounded=0;entryX=0.091;entryY=0.738;entryDx=0;entryDy=0;entryPerimeter=0;exitX=1;exitY=0.5;exitDx=0;exitDy=0;" parent="WIyWlLk6GJQsqaUBKTNV-1" source="wq40zb9lQaKxEZ9UK5ey-12" target="wq40zb9lQaKxEZ9UK5ey-13" edge="1">
          <mxGeometry x="0.0422" y="4" width="160" relative="1" as="geometry">
            <mxPoint x="330" y="180" as="sourcePoint" />
            <mxPoint x="490" y="180" as="targetPoint" />
            <Array as="points" />
            <mxPoint as="offset" />
          </mxGeometry>
        </mxCell>
        <mxCell id="wq40zb9lQaKxEZ9UK5ey-18" value="&amp;lt;&amp;lt;extend&amp;gt;&amp;gt;" style="html=1;verticalAlign=bottom;labelBackgroundColor=none;endArrow=open;endFill=0;dashed=1;rounded=0;entryX=0.933;entryY=0.688;entryDx=0;entryDy=0;entryPerimeter=0;" parent="WIyWlLk6GJQsqaUBKTNV-1" source="wq40zb9lQaKxEZ9UK5ey-14" target="wq40zb9lQaKxEZ9UK5ey-12" edge="1">
          <mxGeometry x="-0.4145" y="-1" width="160" relative="1" as="geometry">
            <mxPoint x="330" y="180" as="sourcePoint" />
            <mxPoint x="490" y="180" as="targetPoint" />
            <mxPoint as="offset" />
          </mxGeometry>
        </mxCell>
        <mxCell id="wq40zb9lQaKxEZ9UK5ey-20" value="Check&amp;nbsp;&lt;div style=&quot;font-size: 16px;&quot;&gt;Balance&lt;/div&gt;" style="ellipse;whiteSpace=wrap;html=1;fontSize=16;align=center;fillColor=#fff2cc;strokeColor=#d6b656;" parent="WIyWlLk6GJQsqaUBKTNV-1" vertex="1">
          <mxGeometry x="380" y="400" width="140" height="80" as="geometry" />
        </mxCell>
        <mxCell id="wq40zb9lQaKxEZ9UK5ey-22" value="Transfer&lt;div style=&quot;font-size: 16px;&quot;&gt;Money&lt;/div&gt;" style="ellipse;whiteSpace=wrap;html=1;fillColor=#fff2cc;strokeColor=#d6b656;fontSize=16;" parent="WIyWlLk6GJQsqaUBKTNV-1" vertex="1">
          <mxGeometry x="345" y="690" width="120" height="80" as="geometry" />
        </mxCell>
        <mxCell id="wq40zb9lQaKxEZ9UK5ey-28" value="Check bank&#39;s account balance" style="ellipse;whiteSpace=wrap;html=1;fontSize=14;fillColor=#fff2cc;strokeColor=#d6b656;" parent="WIyWlLk6GJQsqaUBKTNV-1" vertex="1">
          <mxGeometry x="510" y="560" width="125" height="80" as="geometry" />
        </mxCell>
        <mxCell id="wq40zb9lQaKxEZ9UK5ey-29" value="&lt;span style=&quot;font-size: 14px;&quot;&gt;Check vodafone&#39;s wallet balance&lt;/span&gt;" style="ellipse;whiteSpace=wrap;html=1;fillColor=#fff2cc;strokeColor=#d6b656;" parent="WIyWlLk6GJQsqaUBKTNV-1" vertex="1">
          <mxGeometry x="260" y="560" width="130" height="80" as="geometry" />
        </mxCell>
        <mxCell id="wq40zb9lQaKxEZ9UK5ey-39" value="&lt;div&gt;&lt;span style=&quot;background-color: initial;&quot;&gt;User&lt;/span&gt;&lt;/div&gt;" style="shape=umlActor;html=1;verticalLabelPosition=bottom;verticalAlign=top;align=center;" parent="WIyWlLk6GJQsqaUBKTNV-1" vertex="1">
          <mxGeometry x="30" y="380" width="40" height="70" as="geometry" />
        </mxCell>
        <mxCell id="Tr9Js6h852LdCw9TgfBd-26" style="edgeStyle=orthogonalEdgeStyle;rounded=0;orthogonalLoop=1;jettySize=auto;html=1;exitX=0;exitY=1;exitDx=0;exitDy=0;exitPerimeter=0;entryX=1;entryY=0.5;entryDx=0;entryDy=0;" parent="WIyWlLk6GJQsqaUBKTNV-1" source="wq40zb9lQaKxEZ9UK5ey-48" target="wq40zb9lQaKxEZ9UK5ey-22" edge="1">
          <mxGeometry relative="1" as="geometry" />
        </mxCell>
        <mxCell id="rgD5-QKoW8_Qi8IrXqJC-5" style="edgeStyle=orthogonalEdgeStyle;rounded=0;orthogonalLoop=1;jettySize=auto;html=1;exitX=0;exitY=0.3333333333333333;exitDx=0;exitDy=0;exitPerimeter=0;entryX=1;entryY=0.5;entryDx=0;entryDy=0;" parent="WIyWlLk6GJQsqaUBKTNV-1" source="wq40zb9lQaKxEZ9UK5ey-48" target="wq40zb9lQaKxEZ9UK5ey-28" edge="1">
          <mxGeometry relative="1" as="geometry" />
        </mxCell>
        <mxCell id="wq40zb9lQaKxEZ9UK5ey-48" value="Bank" style="shape=umlActor;html=1;verticalLabelPosition=bottom;verticalAlign=top;align=center;" parent="WIyWlLk6GJQsqaUBKTNV-1" vertex="1">
          <mxGeometry x="760" y="140" width="40" height="70" as="geometry" />
        </mxCell>
        <mxCell id="Tr9Js6h852LdCw9TgfBd-24" style="edgeStyle=orthogonalEdgeStyle;rounded=0;orthogonalLoop=1;jettySize=auto;html=1;exitX=0;exitY=1;exitDx=0;exitDy=0;exitPerimeter=0;" parent="WIyWlLk6GJQsqaUBKTNV-1" source="wq40zb9lQaKxEZ9UK5ey-56" target="wq40zb9lQaKxEZ9UK5ey-22" edge="1">
          <mxGeometry relative="1" as="geometry">
            <Array as="points">
              <mxPoint x="780" y="710" />
            </Array>
            <mxPoint x="447" y="758" as="targetPoint" />
          </mxGeometry>
        </mxCell>
        <mxCell id="wq40zb9lQaKxEZ9UK5ey-56" value="Vodafone" style="shape=umlActor;html=1;verticalLabelPosition=bottom;verticalAlign=top;align=center;" parent="WIyWlLk6GJQsqaUBKTNV-1" vertex="1">
          <mxGeometry x="780" y="450" width="45" height="70" as="geometry" />
        </mxCell>
        <mxCell id="Tr9Js6h852LdCw9TgfBd-15" style="edgeStyle=orthogonalEdgeStyle;rounded=0;orthogonalLoop=1;jettySize=auto;html=1;exitX=1;exitY=0.5;exitDx=0;exitDy=0;" parent="WIyWlLk6GJQsqaUBKTNV-1" edge="1">
          <mxGeometry relative="1" as="geometry">
            <mxPoint x="412" y="515" as="targetPoint" />
            <mxPoint x="412" y="515" as="sourcePoint" />
          </mxGeometry>
        </mxCell>
        <mxCell id="Tr9Js6h852LdCw9TgfBd-41" value="&lt;br&gt;extension points&lt;br&gt;p1)Privacy&lt;div&gt;&lt;span style=&quot;background-color: initial;&quot;&gt;p2)Help&amp;nbsp; &amp;nbsp;&amp;nbsp;&lt;/span&gt;&lt;/div&gt;" style="html=1;shape=mxgraph.sysml.useCaseExtPt;whiteSpace=wrap;align=center;fillColor=#fff2cc;strokeColor=#d6b656;" parent="WIyWlLk6GJQsqaUBKTNV-1" vertex="1">
          <mxGeometry x="230" y="840" width="160" height="110" as="geometry" />
        </mxCell>
        <mxCell id="Tr9Js6h852LdCw9TgfBd-42" value="Mange account info" style="resizable=0;html=1;verticalAlign=middle;align=center;labelBackgroundColor=none;fontStyle=1;" parent="Tr9Js6h852LdCw9TgfBd-41" connectable="0" vertex="1">
          <mxGeometry x="80" y="23.375000000000004" as="geometry">
            <mxPoint x="4" y="1" as="offset" />
          </mxGeometry>
        </mxCell>
        <mxCell id="Tr9Js6h852LdCw9TgfBd-44" value="Privacy" style="ellipse;whiteSpace=wrap;html=1;fillColor=#fff2cc;strokeColor=#d6b656;" parent="WIyWlLk6GJQsqaUBKTNV-1" vertex="1">
          <mxGeometry x="470" y="800" width="125" height="80" as="geometry" />
        </mxCell>
        <mxCell id="Tr9Js6h852LdCw9TgfBd-45" value="Help" style="ellipse;whiteSpace=wrap;html=1;fillColor=#fff2cc;strokeColor=#d6b656;" parent="WIyWlLk6GJQsqaUBKTNV-1" vertex="1">
          <mxGeometry x="470" y="910" width="125" height="80" as="geometry" />
        </mxCell>
        <mxCell id="Tr9Js6h852LdCw9TgfBd-46" value="&amp;lt;&amp;lt;extend&amp;gt;&amp;gt;" style="edgeStyle=none;html=1;startArrow=open;endArrow=none;startSize=12;verticalAlign=bottom;dashed=1;labelBackgroundColor=none;rounded=0;entryX=0;entryY=0.5;entryDx=0;entryDy=0;exitX=0.855;exitY=0.855;exitDx=0;exitDy=0;exitPerimeter=0;" parent="WIyWlLk6GJQsqaUBKTNV-1" source="Tr9Js6h852LdCw9TgfBd-41" target="Tr9Js6h852LdCw9TgfBd-45" edge="1">
          <mxGeometry width="160" relative="1" as="geometry">
            <mxPoint x="330" y="900" as="sourcePoint" />
            <mxPoint x="490" y="900" as="targetPoint" />
          </mxGeometry>
        </mxCell>
        <mxCell id="Tr9Js6h852LdCw9TgfBd-47" value="&amp;lt;&amp;lt;extend&amp;gt;&amp;gt;" style="edgeStyle=none;html=1;startArrow=open;endArrow=none;startSize=12;verticalAlign=bottom;dashed=1;labelBackgroundColor=none;rounded=0;entryX=0;entryY=0.5;entryDx=0;entryDy=0;exitX=0.888;exitY=0.209;exitDx=0;exitDy=0;exitPerimeter=0;strokeWidth=1;" parent="WIyWlLk6GJQsqaUBKTNV-1" source="Tr9Js6h852LdCw9TgfBd-41" target="Tr9Js6h852LdCw9TgfBd-44" edge="1">
          <mxGeometry width="160" relative="1" as="geometry">
            <mxPoint x="330" y="900" as="sourcePoint" />
            <mxPoint x="490" y="900" as="targetPoint" />
          </mxGeometry>
        </mxCell>
        <mxCell id="Tr9Js6h852LdCw9TgfBd-48" value="Regular&lt;div&gt;user&lt;/div&gt;" style="shape=umlActor;html=1;verticalLabelPosition=bottom;verticalAlign=top;align=center;" parent="WIyWlLk6GJQsqaUBKTNV-1" vertex="1">
          <mxGeometry x="80" y="470" width="30" height="60" as="geometry" />
        </mxCell>
        <mxCell id="qKMHblmhMZpfbqK5lc5K-0" style="edgeStyle=orthogonalEdgeStyle;rounded=0;orthogonalLoop=1;jettySize=auto;html=1;exitX=0.25;exitY=0.1;exitDx=0;exitDy=0;exitPerimeter=0;entryX=0;entryY=0.5;entryDx=0;entryDy=0;" edge="1" parent="WIyWlLk6GJQsqaUBKTNV-1" source="Tr9Js6h852LdCw9TgfBd-52" target="rgD5-QKoW8_Qi8IrXqJC-7">
          <mxGeometry relative="1" as="geometry">
            <Array as="points">
              <mxPoint x="10" y="476" />
              <mxPoint x="10" y="170" />
            </Array>
          </mxGeometry>
        </mxCell>
        <mxCell id="Tr9Js6h852LdCw9TgfBd-52" value="New&lt;div&gt;user&lt;/div&gt;" style="shape=umlActor;html=1;verticalLabelPosition=bottom;verticalAlign=top;align=center;" parent="WIyWlLk6GJQsqaUBKTNV-1" vertex="1">
          <mxGeometry y="470" width="30" height="60" as="geometry" />
        </mxCell>
        <mxCell id="Tr9Js6h852LdCw9TgfBd-55" value="" style="edgeStyle=elbowEdgeStyle;html=1;endSize=12;endArrow=block;endFill=0;elbow=horizontal;rounded=0;labelBackgroundColor=default;fontFamily=Helvetica;fontSize=11;fontColor=default;shape=connector;entryX=0.475;entryY=0.571;entryDx=0;entryDy=0;entryPerimeter=0;" parent="WIyWlLk6GJQsqaUBKTNV-1" target="wq40zb9lQaKxEZ9UK5ey-39" edge="1">
          <mxGeometry x="1" relative="1" as="geometry">
            <mxPoint x="410" y="480" as="targetPoint" />
            <mxPoint x="50" y="460" as="sourcePoint" />
            <Array as="points">
              <mxPoint x="49" y="430" />
            </Array>
          </mxGeometry>
        </mxCell>
        <mxCell id="Tr9Js6h852LdCw9TgfBd-62" value="" style="edgeStyle=elbowEdgeStyle;html=1;elbow=horizontal;verticalAlign=bottom;endArrow=none;rounded=0;labelBackgroundColor=default;fontFamily=Helvetica;fontSize=11;fontColor=default;startSize=14;shape=connector;exitX=0.5;exitY=0;exitDx=0;exitDy=0;exitPerimeter=0;entryX=0.5;entryY=0;entryDx=0;entryDy=0;entryPerimeter=0;" parent="WIyWlLk6GJQsqaUBKTNV-1" source="Tr9Js6h852LdCw9TgfBd-52" target="Tr9Js6h852LdCw9TgfBd-48" edge="1">
          <mxGeometry x="1" relative="1" as="geometry">
            <mxPoint x="458" y="515" as="targetPoint" />
            <Array as="points">
              <mxPoint x="20" y="460" />
            </Array>
            <mxPoint x="350" y="490" as="sourcePoint" />
          </mxGeometry>
        </mxCell>
        <mxCell id="Tr9Js6h852LdCw9TgfBd-66" style="edgeStyle=orthogonalEdgeStyle;rounded=0;orthogonalLoop=1;jettySize=auto;html=1;exitX=1;exitY=1;exitDx=0;exitDy=0;exitPerimeter=0;entryX=0;entryY=0.5;entryDx=0;entryDy=0;entryPerimeter=0;" parent="WIyWlLk6GJQsqaUBKTNV-1" source="wq40zb9lQaKxEZ9UK5ey-39" target="Tr9Js6h852LdCw9TgfBd-41" edge="1">
          <mxGeometry relative="1" as="geometry">
            <Array as="points">
              <mxPoint x="150" y="450" />
              <mxPoint x="150" y="895" />
            </Array>
          </mxGeometry>
        </mxCell>
        <mxCell id="rgD5-QKoW8_Qi8IrXqJC-0" value="" style="verticalAlign=bottom;html=1;ellipse;fillColor=strokeColor;fontFamily=Helvetica;fontSize=11;fontColor=default;" parent="WIyWlLk6GJQsqaUBKTNV-1" vertex="1">
          <mxGeometry x="448" y="523" width="4" height="4" as="geometry" />
        </mxCell>
        <mxCell id="rgD5-QKoW8_Qi8IrXqJC-1" value="" style="edgeStyle=elbowEdgeStyle;html=1;endSize=12;endArrow=block;endFill=0;elbow=horizontal;rounded=0;labelBackgroundColor=default;fontFamily=Helvetica;fontSize=11;fontColor=default;shape=connector;" parent="WIyWlLk6GJQsqaUBKTNV-1" source="rgD5-QKoW8_Qi8IrXqJC-0" target="wq40zb9lQaKxEZ9UK5ey-20" edge="1">
          <mxGeometry x="1" relative="1" as="geometry">
            <mxPoint x="450" y="500" as="targetPoint" />
          </mxGeometry>
        </mxCell>
        <mxCell id="rgD5-QKoW8_Qi8IrXqJC-2" value="" style="edgeStyle=elbowEdgeStyle;html=1;elbow=vertical;verticalAlign=bottom;endArrow=none;rounded=0;labelBackgroundColor=default;fontFamily=Helvetica;fontSize=11;fontColor=default;startSize=14;shape=connector;" parent="WIyWlLk6GJQsqaUBKTNV-1" source="rgD5-QKoW8_Qi8IrXqJC-0" target="wq40zb9lQaKxEZ9UK5ey-28" edge="1">
          <mxGeometry x="1" relative="1" as="geometry">
            <mxPoint x="520" y="560" as="targetPoint" />
            <Array as="points">
              <mxPoint x="490" y="525" />
            </Array>
          </mxGeometry>
        </mxCell>
        <mxCell id="rgD5-QKoW8_Qi8IrXqJC-3" value="" style="edgeStyle=elbowEdgeStyle;html=1;elbow=vertical;verticalAlign=bottom;endArrow=none;rounded=0;labelBackgroundColor=default;fontFamily=Helvetica;fontSize=11;fontColor=default;startSize=14;shape=connector;" parent="WIyWlLk6GJQsqaUBKTNV-1" source="rgD5-QKoW8_Qi8IrXqJC-0" target="wq40zb9lQaKxEZ9UK5ey-29" edge="1">
          <mxGeometry x="1" relative="1" as="geometry">
            <mxPoint x="380" y="550" as="targetPoint" />
            <Array as="points">
              <mxPoint x="410" y="525" />
            </Array>
          </mxGeometry>
        </mxCell>
        <mxCell id="rgD5-QKoW8_Qi8IrXqJC-4" style="edgeStyle=orthogonalEdgeStyle;rounded=0;orthogonalLoop=1;jettySize=auto;html=1;exitX=1;exitY=0.3333333333333333;exitDx=0;exitDy=0;exitPerimeter=0;entryX=0.364;entryY=0.05;entryDx=0;entryDy=0;entryPerimeter=0;" parent="WIyWlLk6GJQsqaUBKTNV-1" source="wq40zb9lQaKxEZ9UK5ey-39" target="wq40zb9lQaKxEZ9UK5ey-20" edge="1">
          <mxGeometry relative="1" as="geometry" />
        </mxCell>
        <mxCell id="rgD5-QKoW8_Qi8IrXqJC-6" style="edgeStyle=orthogonalEdgeStyle;rounded=0;orthogonalLoop=1;jettySize=auto;html=1;exitX=0;exitY=0.3333333333333333;exitDx=0;exitDy=0;exitPerimeter=0;entryX=0.562;entryY=1.013;entryDx=0;entryDy=0;entryPerimeter=0;" parent="WIyWlLk6GJQsqaUBKTNV-1" source="wq40zb9lQaKxEZ9UK5ey-56" target="wq40zb9lQaKxEZ9UK5ey-29" edge="1">
          <mxGeometry relative="1" as="geometry">
            <Array as="points">
              <mxPoint x="740" y="473" />
              <mxPoint x="740" y="660" />
              <mxPoint x="333" y="660" />
            </Array>
          </mxGeometry>
        </mxCell>
        <mxCell id="rgD5-QKoW8_Qi8IrXqJC-7" value="Make account" style="ellipse;whiteSpace=wrap;html=1;fillColor=#fff2cc;strokeColor=#d6b656;fontSize=14;" parent="WIyWlLk6GJQsqaUBKTNV-1" vertex="1">
          <mxGeometry x="390" y="130" width="120" height="80" as="geometry" />
        </mxCell>
        <mxCell id="qKMHblmhMZpfbqK5lc5K-1" style="edgeStyle=orthogonalEdgeStyle;rounded=0;orthogonalLoop=1;jettySize=auto;html=1;exitX=0.75;exitY=0.1;exitDx=0;exitDy=0;exitPerimeter=0;entryX=0;entryY=0.375;entryDx=0;entryDy=0;entryPerimeter=0;" edge="1" parent="WIyWlLk6GJQsqaUBKTNV-1" source="Tr9Js6h852LdCw9TgfBd-48" target="wq40zb9lQaKxEZ9UK5ey-12">
          <mxGeometry relative="1" as="geometry">
            <Array as="points">
              <mxPoint x="120" y="476" />
              <mxPoint x="120" y="290" />
            </Array>
          </mxGeometry>
        </mxCell>
      </root>
    </mxGraphModel>
  </diagram>
</mxfile>
